<svg version="1.1" xmlns="http://www.w3.org/2000/svg" xmlns:xlink="http://www.w3.org/1999/xlink" width="481" height="347.01496" viewBox="0,0,481,347.01496"><g transform="translate(2,1.01496)"><g data-paper-data="{&quot;isPaintingLayer&quot;:true}" fill-rule="nonzero" stroke="#000000" stroke-width="2" stroke-linecap="butt" stroke-linejoin="miter" stroke-miterlimit="10" stroke-dasharray="" stroke-dashoffset="0" style="mix-blend-mode: normal"><path d="M239,203l-2,-203l68,1l1,200z" fill="#9966ff"/><path d="M120,345v-55h186v55z" fill="#9966ff"/><path d="M307,343v-106h91v106z" fill="#9966ff"/><path d="M416,172v-47h60v47z" fill="#9966ff"/><path d="M417,252v-49h61v49z" fill="#9966ff"/><path d="M1,88v-65h183v65z" fill="#9966ff"/><path d="M0,247v-71h44v71z" fill="#9966ff"/><path d="M340,99.625v-98.625h50v98.625z" fill="#9966ff"/><path d="M87,184.10112v-71.10112h80v71.10112z" fill="#52ff24"/><path d="M88,263l-1,-54h80v55z" fill="#52ff24"/><path d="M-1,150v-31h19v31z" fill="#00ffcc"/><path d="M427,35.5v-34h51v34z" fill="#ff6666"/></g></g></svg>